HIERARCHY
ROOT Hips
{
	OFFSET 0.00000 0.00000 0.00000
	CHANNELS 6 Xposition Yposition Zposition Yrotation Zrotation Xrotation 
	JOINT Lumbar
	{
		OFFSET 0 0 0
		CHANNELS 3 Zrotation Xrotation Yrotation
		JOINT Neck
		{
			OFFSET 0.00 0.2701 0.00
			CHANNELS 3 Zrotation Xrotation Yrotation
			End Site
			{
				OFFSET 0.00 0.1379 0.00
			}
		}
		JOINT RightShoulder
		{
			OFFSET 0.0119 0.2289 0.1181
			CHANNELS 3 Zrotation Xrotation Yrotation
			JOINT RightElbow
			{
				OFFSET 0.00 -0.1475 0.00
				CHANNELS 2 Zrotation Yrotation
				JOINT RightWrist
				{
					OFFSET 0.00 -0.1605 0.00
					CHANNELS 2 Zrotation Xrotation
					End Site
					{
						OFFSET 0.0040 -0.1068 0.0006
					}
				}
			}
		}
		JOINT LeftShoulder
		{
			OFFSET 0.0119 0.2289 -0.1181
			CHANNELS 3 Zrotation Xrotation Yrotation
			JOINT LeftElbow
			{
				OFFSET 0.00 -0.1475 0.00
				CHANNELS 2 Zrotation Yrotation
				JOINT LeftWrist
				{
					OFFSET 0.00 -0.1605 0.00
					CHANNELS 2 Zrotation Xrotation
					End Site
					{
						OFFSET 0.0040 -0.1068 -0.0006
					}
				}
			}
		}
	}
	JOINT RightHip
	{
		OFFSET 0.0316 -0.0424 0.0458
		CHANNELS 3 Zrotation Xrotation Yrotation
		JOINT RightKnee
		{
			OFFSET 0.00 -0.2438 0.00
			CHANNELS 1 Zrotation
			JOINT RightAnkle
			{
				OFFSET 0.00 -0.2449 0.00
				CHANNELS 3 Zrotation Xrotation Yrotation
				End Site
				{
					OFFSET 0.1237 -0.0542 0.0051
				}
			}
		}
	}
	JOINT LeftHip
	{
		OFFSET 0.0316 -0.0424 -0.0458
		CHANNELS 3 Zrotation Xrotation Yrotation
		JOINT LeftKnee
		{
			OFFSET 0.00 -0.2438 0.00
			CHANNELS 1 Zrotation
			JOINT LeftAnkle
			{
				OFFSET 0.00 -0.2449 0.00
				CHANNELS 3 Zrotation Xrotation Yrotation
				End Site
				{
					OFFSET 0.1237 -0.0542 -0.0051
				}
			}
		}
	}
}
MOTION
Frames: 16
Frame Time: 0.02
-0.01023 -0.00528 0.00511 71.52359 -26.13384 -19.60187 40.97831 6.21509 -15.74559 -17.50972 9.68903 -0.36582 -12.84092 -16.28802 -2.38393 32.92036 98.17635 0.51535 7.9773 -14.47933 21.72013 -15.36769 53.52274 -86.27746 -1.48877 -18.78804 44.86364 -3.32311 7.77324 -18.12682 -9.63557 -0.99693 -1.19698 31.17784 14.39062 2.70824 -30.42224 -7.00105 3.91335 2.67816
-0.01388 -0.00572 0.00828 71.00077 -25.41852 -19.00418 40.24541 5.50011 -15.40351 -17.42481 9.17497 -0.37532 -13.4334 -15.89974 -1.9592 32.73504 98.00279 0.85365 7.55441 -14.59374 21.82962 -15.31814 52.62492 -86.0897 -1.29836 -16.94236 44.78898 -3.81934 7.08959 -18.52464 -9.74146 -1.19491 -1.31405 30.58005 13.52093 3.09659 -29.92172 -7.04645 3.9537 2.70669
-0.01753 -0.00616 0.01144 70.47934 -24.70509 -18.40839 39.51455 4.78722 -15.06227 -17.34032 8.66183 -0.38479 -14.02567 -15.51272 -1.53439 32.55107 97.82781 1.19088 7.13196 -14.70797 21.93809 -15.26755 51.72733 -85.90244 -1.10862 -15.10252 44.71362 -4.31374 6.40813 -18.92153 -9.84692 -1.39214 -1.43066 29.9841 12.65378 3.48376 -29.4225 -7.09177 3.99395 2.73515
-0.02117 -0.00659 0.0146 69.95808 -23.99191 -17.81255 38.78386 4.07443 -14.72121 -17.25568 8.14924 -0.39426 -14.61656 -15.12563 -1.11073 32.36641 97.6544 1.52814 6.7102 -14.82203 22.04715 -15.218 50.83185 -85.71524 -0.91879 -13.26243 44.63905 -4.80837 5.72662 -19.31817 -9.95248 -1.58949 -1.54734 29.38816 11.78674 3.87091 -28.92348 -7.13704 4.03418 2.7636
-0.02482 -0.00703 0.01777 69.43559 -23.27697 -17.21479 38.05126 3.3596 -14.37935 -17.1706 7.63602 -0.40376 -15.20712 -14.73729 -0.68771 32.18021 97.48332 1.86649 6.28841 -14.93627 22.15744 -15.16981 49.93713 -85.52757 -0.72831 -11.41679 44.56549 -5.305 5.04285 -19.71561 -10.0585 -1.78764 -1.66452 28.79036 10.91723 4.25924 -28.42328 -7.18235 4.0745 2.79211
-0.02845 -0.00747 0.02092 68.91642 -22.56678 -16.62315 37.32411 2.65084 -14.03941 -17.08738 7.12307 -0.41318 -15.803 -14.35308 -0.25917 32.00096 97.3003 2.20137 5.86464 -15.05054 22.26206 -15.1141 49.0336 -85.34118 -0.54019 -9.58941 44.48635 -5.79469 4.36625 -20.11131 -10.16278 -1.98293 -1.77995 28.19832 10.05512 4.64397 -27.92618 -7.22769 4.11457 2.82047
-0.03212 -0.00791 0.0241 68.39102 -21.84782 -16.0199 36.58673 1.93067 -13.69611 -17.00043 6.61011 -0.42275 -16.38731 -13.96094 0.15785 31.8077 97.141 2.54283 5.44511 -15.16442 22.37808 -15.0739 48.1487 -85.15242 -0.34738 -7.72652 44.41858 -6.29767 3.67614 -20.51012 -10.27048 -2.18373 -1.89874 27.59544 9.17908 5.03547 -27.42335 -7.27294 4.15512 2.84911
-0.03575 -0.00835 0.02725 67.87159 -21.13691 -15.42726 35.85891 1.22096 -13.35568 -16.91704 6.09721 -0.43218 -16.98269 -13.57617 0.58538 31.62777 96.96075 2.87826 5.02206 -15.27904 22.4834 -15.01883 47.2468 -84.96585 -0.15916 -5.89783 44.34024 -6.78863 2.99818 -20.90596 -10.37496 -2.37952 -2.01446 27.00239 8.31583 5.42083 -26.92586 -7.31824 4.1952 2.87747
-0.03935 -0.00877 0.03039 67.35831 -20.43561 -14.84773 35.14192 0.52396 -13.01947 -16.83753 5.58385 -0.44143 -17.59052 -13.20001 1.02665 31.46256 96.75078 3.20629 4.59282 -15.39313 22.57629 -14.9476 46.32257 -84.78183 0.02458 -4.10444 44.24914 -7.26414 2.33601 -21.29878 -10.47579 -2.56897 -2.12636 26.42173 7.46805 5.79843 -26.43442 -7.36378 4.23485 2.90556
-0.04317 -0.00925 0.03363 66.80621 -19.67832 -14.19318 34.36003 -0.2464 -12.6611 -16.73431 5.07152 -0.45169 -18.12353 -12.77312 1.39156 31.20795 96.6994 3.57684 4.19349 -15.50596 22.74263 -14.9754 45.52207 -84.58276 0.23748 -2.08831 44.23188 -7.82625 1.5858 -21.71084 -10.59846 -2.79427 -2.26002 25.7709 6.53074 6.21991 -25.90671 -7.40847 4.27739 2.93546
-0.0465 -0.00962 0.03665 66.33823 -19.03971 -13.6967 33.71678 -0.86177 -12.34818 -16.68197 4.55815 -0.45984 -18.81619 -12.45406 1.91568 31.14488 96.32158 3.85767 3.73481 -15.62416 22.75283 -14.7905 44.46393 -84.41572 0.38671 -0.55479 44.05866 -8.2071 1.01957 -22.08105 -10.67453 -2.94429 -2.34795 25.26748 5.78273 6.54927 -25.45652 -7.45459 4.3136 2.96137
-0.04853 -0.00964 0.03909 66.08467 -18.72622 -13.64062 33.44458 -1.04872 -12.17186 -16.76349 4.03264 -0.46215 -19.93641 -12.42709 2.89697 31.58814 94.97144 3.89007 3.08034 -15.73572 22.34027 -14.04806 42.66417 -84.33486 0.37756 -0.25063 43.45558 -8.07308 0.97734 -22.34531 -10.62598 -2.88264 -2.30753 25.17922 5.55645 6.61799 -25.21376 -7.50781 4.33427 2.97765
-0.05005 -0.00954 0.04129 65.91846 -18.5327 -13.74262 33.31409 -1.08008 -12.0391 -16.89715 3.50804 -0.46238 -21.21816 -12.50902 4.03417 32.22665 93.3077 3.83278 2.37231 -15.85705 21.77014 -13.08814 40.61318 -84.28632 0.30182 -0.44603 42.69703 -7.75979 1.11604 -22.56562 -10.53014 -2.74627 -2.22168 25.23809 5.52026 6.59441 -25.05046 -7.56194 4.34835 2.98975
-0.05178 -0.0095 0.04356 65.72321 -18.28375 -13.76715 33.12393 -1.18534 -11.87846 -17.01077 2.98879 -0.46359 -22.43392 -12.54372 5.08706 32.78925 91.83744 3.81799 1.71033 -15.98731 21.26802 -12.20946 38.69837 -84.2243 0.24539 -0.47819 42.00983 -7.54062 1.15978 -22.80056 -10.4537 -2.64749 -2.15854 25.22133 5.395 6.61982 -24.85345 -7.61353 4.36413 3.00284
-0.0536 -0.00943 0.04603 65.48381 -18.036 -13.81328 32.91097 -1.27897 -11.75149 -17.10918 2.44423 -0.4646 -23.62192 -12.56947 6.19792 33.30084 90.15131 3.79572 0.9568 -16.05939 20.7796 -11.40069 36.6857 -84.15787 0.2335 -0.25291 41.31608 -7.26978 1.25875 -23.05906 -10.38559 -2.53346 -2.08675 25.2375 5.27962 6.62054 -24.64381 -7.67387 4.38494 3.0195
-0.0551 -0.00941 0.048 65.35625 -17.81778 -13.855 32.78299 -1.35723 -11.56539 -17.25147 1.95386 -0.46562 -24.90197 -12.6392 7.22389 33.96152 88.84056 3.76771 0.38101 -16.25719 20.22676 -10.39969 34.82287 -84.10748 0.11502 -0.66866 40.60326 -7.06145 1.28418 -23.25672 -10.28944 -2.43317 -2.022 25.22544 5.19102 6.64424 -24.48264 -7.71647 4.39424 3.02804
